PathFileType	3	(X/Y/Z)	D:\minhoCalibration\240510\subject5_KPNP\preferred\preferred04.trc
DataRate	CameraRate	NumFrames	NumMarkers	Units	OrigDataRate	OrigDataStartFrame	OrigNumFrames
200.0	200.0	37	10	mm	200.0	220	201	
Frame#	Time	Left_Ankle_Outer1			Left_Ankle_Inner1			Left_Knee_Outer1			Left_Knee_Inner1			Left_Wrist1			Right_Wrist1			Right_Knee_Inner1			Right_Knee_Outer1			Right_Ankle_Inner1			Right_Ankle_Outer1			
		X1	Y1	Z1	X2	Y2	Z2	X3	Y3	Z3	X4	Y4	Z4	X5	Y5	Z5	X6	Y6	Z6	X7	Y7	Z7	X8	Y8	Z8	X9	Y9	Z9	X10	Y10	Z10	
220	1.09	-599.45074	95.376793	-546.35956	-625.20825	111.56667	-501.89526	-376.65839	520.22589	-541.1698	-407.10135	512.5838	-451.33704	-517.21295	957.11627	-728.78113	-579.39441	1164.8002	-473.53809	-420.81189	928.12201	-27.782051	-437.87839	1022.6084	-36.71764	-859.78448	794.04388	-99.56118	-868.76721	891.76257	-110.84867
221	1.095	-600.90631	95.068893	-545.11194	-626.67432	110.99487	-500.20242	-378.11221	519.73267	-541.09021	-407.20688	511.99692	-450.6882	-522.66455	954.5462	-727.1394	-575.62915	1166.4331	-472.97656	-409.20663	933.51959	-28.800289	-422.77972	1028.2404	-39.983067	-856.20068	812.68188	-65.488762	-862.90594	911.04285	-79.331543
222	1.1	-602.30896	94.369614	-544.07111	-627.71252	110.34906	-498.58627	-379.70639	519.1153	-540.73541	-407.47678	511.96326	-449.27905	-526.81897	953.43097	-725.85736	-572.22015	1167.9291	-472.67996	-398.16559	938.75677	-30.303938	-409.47354	1033.3574	-43.428547	-850.55365	831.32806	-31.255749	-855.20557	929.79395	-46.719772
223	1.105	-603.86871	93.554634	-543.03345	-628.84674	109.03397	-498.27002	-381.375	518.43665	-540.28143	-408.69089	511.16443	-448.64963	-530.87329	951.71307	-724.47876	-569.33478	1169.2532	-472.34558	-388.23172	943.68799	-31.94066	-396.83713	1037.8406	-47.331573	-839.78729	851.92804	7.9131713	-845.64581	948.19775	-13.158419
224	1.11	-605.23199	92.676147	-542.30853	-629.76801	108.86058	-495.96677	-383.19824	517.64325	-539.69788	-410.6088	509.68445	-448.70181	-534.55597	950.24139	-723.15424	-566.70129	1170.1813	-472.35263	-379.49826	948.29413	-33.777798	-386.10315	1042.0533	-51.28566	-830.42084	868.98572	42.672607	-834.02887	966.19531	21.312725
225	1.115	-606.61749	91.552635	-541.43256	-630.95636	107.4453	-495.5188	-385.0322	516.71124	-539.21875	-412.10779	509.09775	-447.43182	-538.06458	948.64398	-721.73914	-564.62903	1171.0751	-472.0632	-372.06506	952.71753	-35.628021	-376.88785	1045.876	-55.222172	-815.935	887.99713	82.36795	-820.43866	983.8291	55.973808
226	1.12	-608.0437	90.560204	-540.66193	-632.54578	106.25501	-494.46234	-386.89822	515.89569	-538.74078	-413.93616	508.21667	-446.80142	-541.19287	947.65948	-720.32306	-562.92816	1171.835	-471.83533	-365.814	956.88745	-37.44038	-369.10117	1049.3153	-59.150173	-801.53284	906.94507	120.56581	-803.95093	1000.7654	91.78524
227	1.125	-609.34448	89.722031	-539.78619	-633.68768	105.26332	-493.55716	-388.61041	515.04242	-538.341	-415.60175	507.39014	-446.36478	-544.33612	946.58234	-718.95459	-561.60358	1172.4827	-471.57391	-360.81067	960.91522	-39.179451	-363.43097	1052.5468	-62.72036	-780.52008	923.33087	164.26675	-784.92908	1017.2882	128.03931
228	1.13	-610.61407	88.928795	-538.82782	-634.51166	104.14812	-493.03	-390.2305	514.3125	-537.98206	-417.45926	506.38043	-446.43723	-547.34979	945.41833	-717.47314	-560.6554	1173.0042	-471.40295	-357.30923	964.82373	-40.669678	-359.51166	1055.4988	-66.026573	-756.8808	941.85162	199.41824	-763.06702	1033.3184	164.27434
229	1.135	-611.80591	88.338982	-537.84546	-635.6684	103.79257	-491.21701	-391.70682	513.64001	-537.70392	-418.84634	506.15918	-445.51541	-549.77209	944.45703	-716.61029	-560.03662	1173.3635	-471.12595	-355.37021	968.45172	-42.035137	-357.38785	1058.0913	-68.825584	-730.6438	958.31763	238.17841	-738.09564	1048.688	200.26091
230	1.14	-613.01239	87.954979	-536.86346	-636.81421	103.00777	-490.21204	-393.13727	513.29517	-537.34393	-420.27747	505.74918	-445.15991	-552.30438	943.79767	-715.1673	-560.05988	1173.9941	-470.2493	-355.2312	971.86292	-43.346737	-356.99365	1060.3759	-71.134697	-698.83356	974.06604	274.42685	-709.91302	1063.4087	235.63222
231	1.145	-614.16553	87.544807	-535.63434	-637.58893	102.3755	-488.8031	-394.51361	512.94812	-537.16705	-421.43365	505.513	-444.95187	-554.80707	943.1944	-713.84155	-559.92261	1173.7959	-470.58499	-357.0849	974.8877	-44.684422	-358.63583	1062.611	-72.786415	-665.80878	988.36469	311.75317	-678.49841	1077.4767	269.59546
232	1.15	-615.3075	87.265877	-534.3797	-638.44128	102.2116	-487.34421	-395.8999	512.92322	-536.92633	-422.88501	505.30518	-445.17221	-556.76361	942.54846	-712.9718	-560.66766	1174.045	-468.84372	-361.06473	977.49329	-45.892784	-361.90143	1064.4694	-73.74324	-626.547	1000.683	341.71112	-643.71362	1090.3225	301.73831
233	1.155	-616.35284	86.888771	-533.05548	-639.17853	101.95977	-485.70108	-397.38571	513.04138	-536.80072	-423.93716	505.70566	-444.46884	-559.00836	942.32977	-711.26752	-561.26532	1173.8163	-469.21408	-366.99298	979.96082	-46.32383	-366.83621	1066.3792	-73.864639	-585.72119	1013.7229	370.21313	-606.04022	1101.8344	330.80939
234	1.16	-617.2868	86.657372	-532.03973	-639.74841	101.62154	-484.19693	-399.09842	513.09644	-536.55627	-425.04507	505.879	-444.25641	-559.00604	942.31696	-711.61993	-562.82916	1174.1771	-467.673	-373.82834	982.05646	-45.619499	-373.26859	1068.3833	-73.090683	-541.18842	1022.3661	391.94229	-565.56958	1111.5236	356.28336
235	1.165	-618.17676	86.246269	-531.03943	-640.65271	101.04379	-483.23907	-400.86029	513.34247	-536.20886	-426.27661	505.97839	-443.80539	-559.95374	942.53912	-710.01062	-564.54675	1174.2871	-466.27631	-381.17114	984.46729	-43.859409	-381.02194	1070.3695	-71.594551	-493.95129	1029.1909	408.27014	-522.74152	1117.9493	376.08578
236	1.17	-618.88513	85.965057	-530.27985	-641.23865	100.53278	-482.4202	-402.53604	513.72028	-535.59503	-427.53494	505.94324	-443.59644	-561.33167	943.12799	-706.8501	-566.43365	1174.6012	-465.41782	-388.83426	987.6438	-41.29425	-388.88391	1073.0636	-70.199051	-445.7164	1032.3827	417.22119	-479.4292	1120.4979	390.28967
237	1.175	-619.59442	85.685715	-529.69531	-641.69043	99.969704	-481.8649	-404.25113	513.98596	-534.77936	-428.64038	506.27554	-442.36642	-561.13068	943.82513	-704.5343	-568.89423	1174.7544	-462.55588	-396.22455	991.98871	-38.702362	-396.65039	1076.9368	-68.795105	-411.75995	1033.1008	418.65277	-445.9162	1120.9729	396.15552
238	1.18	-620.2381	85.301987	-529.16248	-642.32703	99.329292	-481.32574	-406.01532	514.19476	-533.60443	-429.97894	506.31177	-441.10345	-560.51849	944.59186	-701.6933	-571.28333	1175.2863	-460.1203	-401.69434	996.43121	-36.258366	-402.95532	1081.927	-66.748314	-393.77728	1031.0111	414.30966	-431.06757	1120.6788	393.09473
239	1.185	-620.53259	84.921532	-528.9386	-642.68359	99.15284	-480.51181	-407.77802	514.41113	-531.94116	-431.33075	506.32901	-439.40771	-558.94873	945.09302	-698.72888	-573.95459	1175.6364	-456.89456	-403.29959	1001.039	-34.832138	-405.96274	1086.901	-64.687408	-388.03821	1026.6541	411.12286	-426.05322	1116.2869	395.88754
240	1.19	-620.58179	84.644051	-529.13708	-642.83356	98.513382	-481.07468	-409.52921	514.73108	-529.68695	-432.92007	506.39005	-437.11612	-557.64728	945.58508	-694.94287	-576.80371	1176.1561	-454.45441	-401.19043	1005.8624	-33.729202	-407.26965	1091.4791	-62.58622	-387.5993	1024.0852	417.85831	-428.74457	1112.3752	398.58368
241	1.195	-620.49878	84.372406	-529.33325	-643.2099	97.9711	-481.26865	-411.09741	515.11493	-526.76044	-434.80222	506.48517	-434.26773	-556.14722	945.84949	-691.67279	-580.03485	1176.4595	-451.97052	-399.83682	1009.3374	-33.094601	-408.80707	1094.7103	-60.405613	-384.58676	1021.3723	416.90305	-433.70697	1106.3071	401.0423
242	1.2	-620.14032	84.11264	-529.80219	-643.02344	97.581108	-481.61374	-412.42731	515.57281	-523.20227	-437.35361	506.42963	-431.30801	-553.6554	946.70892	-689.67883	-583.5802	1176.1357	-449.69119	-400.46085	1011.5585	-32.908257	-410.99042	1096.9296	-58.423012	-383.14337	1017.0231	416.32907	-439.50888	1099.199	403.67639
243	1.205	-619.71326	83.78891	-530.12238	-643.52344	96.687309	-482.46896	-413.48627	516.1825	-519.00543	-439.95096	506.6015	-427.80374	-551.17401	947.72742	-687.96442	-587.56964	1175.6056	-447.42856	-402.97726	1013.9309	-32.971825	-413.16965	1098.7083	-56.706635	-384.68863	1010.9293	417.00616	-441.5954	1093.0533	405.99097
244	1.21	-619.24316	83.476662	-530.44684	-643.18738	96.177299	-482.81509	-414.642	516.8363	-514.45306	-442.9606	506.7507	-424.04935	-549.11719	948.39532	-686.18591	-591.49634	1175.3732	-445.83112	-407.09991	1016.5518	-32.564667	-416.0477	1100.2991	-55.878468	-388.24158	1002.4323	415.75143	-441.09351	1087.5461	407.64719
245	1.215	-618.87354	83.123512	-530.68713	-643.12695	94.628487	-484.70197	-416.03125	517.58374	-509.69403	-446.37381	507.12466	-419.75504	-546.46411	949.94531	-684.37762	-595.50201	1175.7477	-444.5184	-412.66458	1019.092	-31.526752	-420.37372	1101.8	-55.106129	-388.86874	994.49561	413.86203	-442.00763	1080.0181	409.60889
246	1.22	-618.47064	82.846756	-530.99011	-643.47797	94.416496	-484.03137	-417.66827	518.27924	-505.05215	-450.18051	506.92798	-416.61752	-544.00134	950.83282	-682.57953	-599.34985	1176.4971	-443.90915	-418.06454	1021.1423	-30.723589	-426.83542	1103.3429	-53.647522	-386.20956	988.78625	416.64255	-444.20648	1070.1711	412.28137
247	1.225	-618.44043	82.330963	-531.03851	-643.98914	93.585495	-484.40738	-419.75131	518.92725	-500.50873	-454.25861	507.0181	-413.09943	-541.87128	950.86597	-680.59363	-603.07019	1177.6367	-443.78745	-426.41318	1021.774	-27.887699	-435.18964	1105.0806	-51.499493	-384.02444	981.56854	416.31232	-445.21155	1060.4335	414.14786
248	1.23	-618.47937	81.909515	-531.07404	-644.41217	92.783806	-484.56244	-422.06866	519.50983	-496.24518	-458.61142	507.06982	-409.90436	-539.54596	950.89008	-678.20782	-606.0022	1178.7477	-444.95581	-431.61548	1022.2355	-27.287708	-445.39676	1106.4364	-48.563976	-383.42328	975.32483	411.35077	-446.02802	1051.5928	416.23511
249	1.235	-618.56989	81.523155	-530.97961	-645.23956	92.14119	-483.95007	-424.77765	519.94397	-492.28281	-463.24811	507.21008	-406.97034	-537.38025	950.39807	-675.61285	-608.98499	1180.6995	-445.40759	-436.82172	1022.0158	-26.210903	-457.19977	1106.6923	-44.931076	-381.51303	969.10132	409.48276	-446.77554	1042.6986	417.4566
250	1.24	-619.16351	81.02552	-530.56787	-645.57611	90.787445	-485.23267	-427.65445	520.41931	-488.76044	-468.06265	507.35669	-404.36707	-534.67017	950.2821	-672.9032	-611.8891	1181.8086	-446.47791	-441.04071	1021.4218	-25.100119	-469.67261	1105.1671	-41.33884	-379.84332	963.93341	408.6723	-448.68478	1033.9845	418.51617
251	1.245	-619.99762	80.543793	-529.85382	-646.12299	90.377289	-484.22662	-430.77972	520.72717	-485.60886	-472.83514	507.62527	-402.19733	-531.61859	950.20752	-670.30499	-614.73993	1183.2511	-447.27606	-444.18387	1020.9022	-24.439007	-481.70764	1101.5702	-37.976208	-378.28995	959.46912	408.44009	-450.77161	1025.2124	419.13898
252	1.25	-620.81616	79.981476	-528.92902	-647.83679	89.605637	-482.65802	-433.82626	521.01099	-483.03656	-477.43423	507.89648	-400.48856	-529.71698	949.76172	-666.98792	-617.53424	1184.4371	-447.98868	-446.7088	1020.7546	-24.138756	-491.4588	1097.3235	-35.355827	-377.60281	954.58643	408.06628	-453.16888	1016.3154	419.72559
253	1.255	-621.85669	79.544678	-527.96649	-648.81378	88.203514	-482.85938	-436.76877	521.22974	-480.88507	-481.78207	508.26733	-399.15787	-526.99622	949.92029	-664.42761	-620.47083	1185.6427	-448.03076	-449.94861	1019.9882	-23.774229	-499.8978	1093.0455	-33.061363	-377.62338	949.69861	407.51483	-455.87418	1006.9384	420.09271
254	1.26	-623.14496	78.901657	-526.84265	-650.41498	87.553314	-481.08368	-439.67755	521.28455	-479.27448	-485.73434	508.56595	-398.18649	-525.40289	949.53699	-661.54132	-623.13989	1185.4219	-449.02509	-454.06418	1018.0635	-23.185209	-506.79617	1089.2004	-31.176659	-377.90717	944.06097	406.58304	-459.16611	996.841	420.51929
255	1.265	-624.11896	78.317406	-526.02521	-650.8822	86.493515	-481.07507	-442.52533	521.26917	-478.05573	-489.25101	508.82465	-397.50653	-523.21301	949.73248	-659.27026	-625.91882	1185.9091	-448.37048	-458.67468	1015.3021	-22.469475	-512.52069	1085.5297	-29.440277	-378.73944	937.69965	405.42877	-462.64972	985.84735	420.5571
256	1.27	-624.85016	77.769394	-525.68518	-652.02307	86.041779	-479.78848	-444.85565	521.36414	-477.39282	-492.30029	508.99124	-397.0202	-520.87469	950.58826	-657.26031	-629.13068	1185.1058	-447.57645	-462.57092	1012.2931	-21.967787	-518.17383	1081.8053	-27.339582	-380.07288	930.70819	404.23419	-466.08276	974.35889	420.13599
